# xmcd CD database file
#
# Track frame offsets:
#	150
#	13386
#	25352
#	37510
#	52235
#	61436
#	75324
#	85452
#	97160
#	106808
#	118342
#	129527
#	141594
#	152839
#	167142
#
# Disc length: 2338 seconds
#
# Revision: 9
# Processed by: cddbd v1.5.2PL0 Copyright (c) Steve Scherf et al.
# Submitted via: CDex 1.50
#
DISCID=d209200f
DTITLE=Ronny - Die Country-Songs CD03
DYEAR=1997
DGENRE=Country
TTITLE0=Good morning, my sweet Adalita
TTITLE1=Kein Gold im Blue River
TTITLE2=Oh, my darling Caroline
TTITLE3=Adios, my darling
TTITLE4=Geisterreiter
TTITLE5=Laura, oh, Laura
TTITLE6=Eine kleine Träne
TTITLE7=Little sweetheart Belinda
TTITLE8=Oh, Susanna
TTITLE9=Old Charly
TTITLE10=Das Haus am alten Ohio
TTITLE11=Musst nicht weinen um mich
TTITLE12=Schwarze Reiter ziehen durch die Nacht
TTITLE13=Bei Dir am Red River
TTITLE14=Fern in Idaho
EXTD=YEAR: 1997
EXTT0=
EXTT1=
EXTT2=
EXTT3=
EXTT4=
EXTT5=
EXTT6=
EXTT7=
EXTT8=
EXTT9=
EXTT10=
EXTT11=
EXTT12=
EXTT13=
EXTT14=
PLAYORDER=
